<svg width="20" height="20" viewBox="0 0 20 20" fill="none" xmlns="http://www.w3.org/2000/svg">
<g clip-path="url(#clip0_2789_60088)">
<path fill-rule="evenodd" clip-rule="evenodd" d="M5 0C5.55228 0 6 0.447715 6 1V2H9V1C9 0.447715 9.44771 0 10 0C10.5523 0 11 0.447715 11 1V2H14V1C14 0.447715 14.4477 0 15 0C15.5523 0 16 0.447715 16 1V2C17.6569 2 19 3.34315 19 5V17C19 18.6569 17.6569 20 16 20H4C2.34315 20 1 18.6569 1 17V5C1 3.34315 2.34315 2 4 2V1C4 0.447715 4.44772 0 5 0ZM5 7C5 6.44772 5.44772 6 6 6C6.55228 6 7 6.44772 7 7C7 7.55228 6.55228 8 6 8C5.44772 8 5 7.55228 5 7ZM5 11C5 10.4477 5.44772 10 6 10C6.55228 10 7 10.4477 7 11C7 11.5523 6.55228 12 6 12C5.44772 12 5 11.5523 5 11ZM5 15C5 14.4477 5.44772 14 6 14C6.55228 14 7 14.4477 7 15C7 15.5523 6.55228 16 6 16C5.44772 16 5 15.5523 5 15ZM9 7C9 6.44772 9.44772 6 10 6C10.5523 6 11 6.44772 11 7C11 7.55228 10.5523 8 10 8C9.44772 8 9 7.55228 9 7ZM13 7C13 6.44772 13.4477 6 14 6C14.5523 6 15 6.44772 15 7C15 7.55228 14.5523 8 14 8C13.4477 8 13 7.55228 13 7ZM9 11C9 10.4477 9.44772 10 10 10C10.5523 10 11 10.4477 11 11C11 11.5523 10.5523 12 10 12C9.44772 12 9 11.5523 9 11ZM9 15C9 14.4477 9.44772 14 10 14C10.5523 14 11 14.4477 11 15C11 15.5523 10.5523 16 10 16C9.44772 16 9 15.5523 9 15ZM13 11C13 10.4477 13.4477 10 14 10C14.5523 10 15 10.4477 15 11C15 11.5523 14.5523 12 14 12C13.4477 12 13 11.5523 13 11Z" fill="#111111"/>
</g>
<defs>
<clipPath id="clip0_2789_60088">
<rect width="20" height="20" fill="white"/>
</clipPath>
</defs>
</svg>
