<svg width="30" height="30" viewBox="0 0 30 30" fill="none" xmlns="http://www.w3.org/2000/svg">
<g clip-path="url(#clip0_2789_60123)">
<path fill-rule="evenodd" clip-rule="evenodd" d="M15 2C10.0077 2 6 6 6 11.3561C6 15.339 8.13803 19.2099 10.1054 21.9606C11.1079 23.3622 12.1078 24.53 12.8568 25.3476C13.268 25.7965 13.6871 26.2415 14.13 26.6582C14.62 27.1132 15.3787 27.1143 15.8688 26.6594C16.3122 26.2424 16.7316 25.7969 17.1432 25.3476C17.8922 24.53 18.8921 23.3622 19.8946 21.9606C21.862 19.2099 24 15.339 24 11.3561C24 6 19.9923 2 15 2ZM15 14C13.3431 14 12 12.6569 12 11C12 9.34315 13.3431 8 15 8C16.6569 8 18 9.34315 18 11C18 12.6569 16.6569 14 15 14Z" fill="#111111"/>
</g>
<defs>
<clipPath id="clip0_2789_60123">
<rect width="30" height="30" fill="white"/>
</clipPath>
</defs>
</svg>
