<svg width="20" height="20" viewBox="0 0 20 20" fill="none" xmlns="http://www.w3.org/2000/svg">
<g clip-path="url(#clip0_2789_60121)">
<path fill-rule="evenodd" clip-rule="evenodd" d="M10 0C6.11709 0 3 3.19992 3 7.1091C3 10.1355 4.66291 13.0767 6.19313 15.1669C6.97279 16.2318 7.75047 17.1192 8.33304 17.7404C8.65289 18.0815 8.97883 18.4196 9.3233 18.7363C9.70446 19.082 10.2946 19.0828 10.6757 18.7372C11.0206 18.4204 11.3468 18.0818 11.667 17.7404C12.2495 17.1192 13.0272 16.2318 13.8069 15.1669C15.3371 13.0767 17 10.1355 17 7.1091C17 3.19992 13.8829 0 10 0ZM10 9C8.89543 9 8 8.10457 8 7C8 5.89543 8.89543 5 10 5C11.1046 5 12 5.89543 12 7C12 8.10457 11.1046 9 10 9Z" fill="#111111"/>
</g>
<defs>
<clipPath id="clip0_2789_60121">
<rect width="20" height="20" fill="white"/>
</clipPath>
</defs>
</svg>
