<svg width="20" height="20" viewBox="0 0 20 20" fill="none" xmlns="http://www.w3.org/2000/svg">
<g clip-path="url(#clip0_2789_60111)">
<path fill-rule="evenodd" clip-rule="evenodd" d="M2 9C2 12.866 5.13401 16 9 16C10.5723 16 12.0236 15.4816 13.1922 14.6064L16.2929 17.7071C16.6834 18.0976 17.3166 18.0976 17.7071 17.7071C18.0976 17.3166 18.0976 16.6834 17.7071 16.2929L14.6064 13.1922C15.4816 12.0236 16 10.5723 16 9C16 5.13401 12.866 2 9 2C5.13401 2 2 5.13401 2 9ZM11 8H10V7C10 6.44772 9.55228 6 9 6C8.44772 6 8 6.44772 8 7V8H7C6.44772 8 6 8.44772 6 9C6 9.55228 6.44772 10 7 10H8V11C8 11.5523 8.44772 12 9 12C9.55228 12 10 11.5523 10 11V10H11C11.5523 10 12 9.55228 12 9C12 8.44772 11.5523 8 11 8Z" fill="#111111"/>
</g>
<defs>
<clipPath id="clip0_2789_60111">
<rect width="20" height="20" fill="white"/>
</clipPath>
</defs>
</svg>
