<svg width="30" height="30" viewBox="0 0 30 30" fill="none" xmlns="http://www.w3.org/2000/svg">
<g clip-path="url(#clip0_2789_60090)">
<path fill-rule="evenodd" clip-rule="evenodd" d="M9 2C9.55228 2 10 2.44772 10 3V4H14V3C14 2.44772 14.4477 2 15 2C15.5523 2 16 2.44772 16 3V4H20V3C20 2.44772 20.4477 2 21 2C21.5523 2 22 2.44772 22 3V4H23C25.2091 4 27 5.79086 27 8V22C27 24.2091 25.2091 26 23 26H7C4.79086 26 3 24.2091 3 22V8C3 5.79086 4.79086 4 7 4H8V3C8 2.44772 8.44772 2 9 2ZM16 6H20V7C20 7.55228 20.4477 8 21 8C21.5523 8 22 7.55228 22 7V6H23C24.1046 6 25 6.89543 25 8V10H5V8C5 6.89543 5.89543 6 7 6H8V7C8 7.55228 8.44772 8 9 8C9.55228 8 10 7.55228 10 7V6H14V7C14 7.55228 14.4477 8 15 8C15.5523 8 16 7.55228 16 7V6ZM8 14C8 13.4477 8.44772 13 9 13C9.55228 13 10 13.4477 10 14C10 14.5523 9.55228 15 9 15C8.44772 15 8 14.5523 8 14ZM8 18C8 17.4477 8.44772 17 9 17C9.55228 17 10 17.4477 10 18C10 18.5523 9.55228 19 9 19C8.44772 19 8 18.5523 8 18ZM8 22C8 21.4477 8.44772 21 9 21C9.55228 21 10 21.4477 10 22C10 22.5523 9.55228 23 9 23C8.44772 23 8 22.5523 8 22ZM12 14C12 13.4477 12.4477 13 13 13C13.5523 13 14 13.4477 14 14C14 14.5523 13.5523 15 13 15C12.4477 15 12 14.5523 12 14ZM12 18C12 17.4477 12.4477 17 13 17C13.5523 17 14 17.4477 14 18C14 18.5523 13.5523 19 13 19C12.4477 19 12 18.5523 12 18ZM12 22C12 21.4477 12.4477 21 13 21C13.5523 21 14 21.4477 14 22C14 22.5523 13.5523 23 13 23C12.4477 23 12 22.5523 12 22ZM16 14C16 13.4477 16.4477 13 17 13C17.5523 13 18 13.4477 18 14C18 14.5523 17.5523 15 17 15C16.4477 15 16 14.5523 16 14ZM20 14C20 13.4477 20.4477 13 21 13C21.5523 13 22 13.4477 22 14C22 14.5523 21.5523 15 21 15C20.4477 15 20 14.5523 20 14ZM16 18C16 17.4477 16.4477 17 17 17C17.5523 17 18 17.4477 18 18C18 18.5523 17.5523 19 17 19C16.4477 19 16 18.5523 16 18ZM16 22C16 21.4477 16.4477 21 17 21C17.5523 21 18 21.4477 18 22C18 22.5523 17.5523 23 17 23C16.4477 23 16 22.5523 16 22ZM20 18C20 17.4477 20.4477 17 21 17C21.5523 17 22 17.4477 22 18C22 18.5523 21.5523 19 21 19C20.4477 19 20 18.5523 20 18Z" fill="#111111"/>
</g>
<defs>
<clipPath id="clip0_2789_60090">
<rect width="30" height="30" fill="white"/>
</clipPath>
</defs>
</svg>
