<svg width="20" height="20" viewBox="0 0 20 20" fill="none" xmlns="http://www.w3.org/2000/svg">
<g clip-path="url(#clip0_2789_60126)">
<path fill-rule="evenodd" clip-rule="evenodd" d="M1.29543 1.29289C1.68596 0.902369 2.31912 0.902369 2.70964 1.29289L6.00254 4.58579V3.66667C6.00254 3.11438 6.45025 2.66667 7.00254 2.66667C7.55482 2.66667 8.00254 3.11438 8.00254 3.66667V7C8.00254 7.55228 7.55482 8 7.00254 8H3.6692C3.11692 8 2.6692 7.55228 2.6692 7C2.6692 6.44772 3.11692 6 3.6692 6H4.58832L1.29543 2.70711C0.904907 2.31658 0.904907 1.68342 1.29543 1.29289ZM1.00373 17.1722V14.4648C0.980957 13.5486 1.64975 12.7608 2.559 12.6328C3.42711 12.5185 4.27949 12.3066 5.09987 12.0011C5.76074 11.7532 6.50576 11.9117 7.00778 12.4072L8.15614 13.5533C10.4199 12.2686 12.2943 10.3979 13.5815 8.13856L12.4331 6.99243C11.9367 6.49139 11.7778 5.74783 12.0262 5.08824C12.3323 4.26946 12.5447 3.41875 12.6592 2.55232C12.7862 1.65525 13.5599 0.991172 14.4676 1.00009H17.1803C17.3785 1.00028 17.6963 1.0003 18.01 1.00027C18.5503 1.0002 18.994 1.42917 18.9988 1.96945C19.0021 2.35075 18.9995 2.74895 18.9797 2.96746C18.6829 5.75696 17.7319 8.43746 16.2037 10.7918C14.8154 12.9723 12.9631 14.821 10.7784 16.2066C8.43012 17.7264 5.75739 18.6754 2.97494 18.9771C2.75474 18.997 2.35403 18.9996 1.97108 18.9962C1.43142 18.9914 1.00261 18.5487 1.00264 18.009C1.00266 17.6927 1.00292 17.3717 1.00373 17.1722Z" fill="#111111"/>
</g>
<defs>
<clipPath id="clip0_2789_60126">
<rect width="20" height="20" fill="white"/>
</clipPath>
</defs>
</svg>
