<svg width="30" height="30" viewBox="0 0 30 30" fill="none" xmlns="http://www.w3.org/2000/svg">
<g clip-path="url(#clip0_2789_60133)">
<path fill-rule="evenodd" clip-rule="evenodd" d="M24.9987 19.9609V22.9691C24.9997 23.2134 24.9999 23.6218 24.9999 24.0065C24.9998 24.5462 24.5711 24.9885 24.0314 24.9947C23.5752 24.9999 23.0738 24.9985 22.8084 24.9746C19.7168 24.6393 16.7471 23.5849 14.1379 21.8962C11.7104 20.3567 9.65233 18.3026 8.10979 15.8798C6.41184 13.2638 5.35517 10.2855 5.02538 7.18606C5.00153 6.92259 5.00009 6.42399 5.00527 5.96944C5.01143 5.42917 5.45471 5.0002 5.99501 5.00028C6.377 5.00034 6.78172 5.00033 7.02472 5.0001H10.0388C11.0474 4.99019 11.907 5.72805 12.0482 6.7248C12.1754 7.6875 12.4113 8.63274 12.7515 9.54249C13.0275 10.2754 12.8509 11.1015 12.2994 11.6583L11.0234 12.9317C12.4536 15.4421 14.5363 17.5207 17.0516 18.9481L18.3275 17.6747C18.8853 17.1242 19.7131 16.948 20.4474 17.2234C21.3589 17.5629 22.306 17.7984 23.2706 17.9254C24.2809 18.0676 25.024 18.9429 24.9987 19.9609Z" fill="#111111"/>
</g>
<defs>
<clipPath id="clip0_2789_60133">
<rect width="30" height="30" fill="white"/>
</clipPath>
</defs>
</svg>
