<svg width="30" height="30" viewBox="0 0 30 30" fill="none" xmlns="http://www.w3.org/2000/svg">
<g clip-path="url(#clip0_2789_60113)">
<path fill-rule="evenodd" clip-rule="evenodd" d="M21.0319 19.6177L24.7071 23.2929C25.0976 23.6834 25.0976 24.3166 24.7071 24.7071C24.3166 25.0976 23.6834 25.0976 23.2929 24.7071L19.6177 21.0319C18.078 22.2635 16.125 23 14 23C9.02944 23 5 18.9706 5 14C5 9.02944 9.02944 5 14 5C18.9706 5 23 9.02944 23 14C23 16.125 22.2635 18.078 21.0319 19.6177ZM15 13H17C17.5523 13 18 13.4477 18 14C18 14.5523 17.5523 15 17 15H15V17C15 17.5523 14.5523 18 14 18C13.4477 18 13 17.5523 13 17V15H11C10.4477 15 10 14.5523 10 14C10 13.4477 10.4477 13 11 13H13V11C13 10.4477 13.4477 10 14 10C14.5523 10 15 10.4477 15 11V13Z" fill="#111111"/>
</g>
<defs>
<clipPath id="clip0_2789_60113">
<rect width="30" height="30" fill="white"/>
</clipPath>
</defs>
</svg>
