<svg width="30" height="30" viewBox="0 0 30 30" fill="none" xmlns="http://www.w3.org/2000/svg">
<g clip-path="url(#clip0_2789_60128)">
<path fill-rule="evenodd" clip-rule="evenodd" d="M4.29572 4.29289C4.68624 3.90237 5.3194 3.90237 5.70993 4.29289L11.0028 9.58579V6C11.0028 5.44772 11.4505 5 12.0028 5C12.5551 5 13.0028 5.44772 13.0028 6V12L13.0028 12.003C13.0024 12.1375 12.9755 12.2657 12.9269 12.3828C12.8792 12.498 12.8091 12.6062 12.7164 12.7005L12.7034 12.7136C12.5236 12.8901 12.2775 12.9992 12.0058 13L12.0021 13H6.00282C5.45053 13 5.00282 12.5523 5.00282 12C5.00282 11.4477 5.45053 11 6.00282 11H9.58861L4.29572 5.70711C3.90519 5.31658 3.90519 4.68342 4.29572 4.29289ZM6.00415 23.9691V20.9609C5.97884 19.9429 6.72194 19.0676 7.73222 18.9254C8.69679 18.7984 9.64388 18.5629 10.5554 18.2234C11.2897 17.948 12.1175 18.1242 12.6753 18.6747L13.9513 19.9481C16.4666 18.5207 18.5492 16.4421 19.9794 13.9317L18.7035 12.6583C18.1519 12.1015 17.9753 11.2754 18.2514 10.5425C18.5915 9.63274 18.8274 8.6875 18.9546 7.7248C19.0958 6.72805 19.9554 5.99019 20.964 6.0001H23.9781C24.2211 6.00033 24.6258 6.00034 25.0078 6.00028C25.5481 6.0002 25.9914 6.42917 25.9975 6.96944C26.0027 7.42399 26.0013 7.92259 25.9774 8.18606C25.6477 11.2855 24.591 14.2638 22.893 16.8798C21.3505 19.3026 19.2924 21.3567 16.8649 22.8962C14.2557 24.5849 11.286 25.6393 8.19438 25.9746C7.92898 25.9985 7.4276 25.9999 6.97139 25.9947C6.43174 25.9885 6.00299 25.5462 6.00294 25.0065C6.0029 24.6218 6.00316 24.2134 6.00415 23.9691Z" fill="#111111"/>
</g>
<defs>
<clipPath id="clip0_2789_60128">
<rect width="30" height="30" fill="white"/>
</clipPath>
</defs>
</svg>
