<svg width="20" height="20" viewBox="0 0 20 20" fill="none" xmlns="http://www.w3.org/2000/svg">
<g clip-path="url(#clip0_2789_60131)">
<path fill-rule="evenodd" clip-rule="evenodd" d="M16.9996 13.483V15.5888C17 15.6984 17.0002 15.8551 17.0003 16.0244C17.0007 16.5641 16.5716 17.0086 16.0319 17.0084C15.8075 17.0083 15.5965 17.0043 15.4664 16.9926C13.3023 16.7579 11.2235 16.0198 9.39705 14.8377C7.69779 13.76 6.25712 12.3222 5.17734 10.6262C3.98877 8.79507 3.2491 6.71023 3.01826 4.54062C3.00659 4.41183 3.00259 4.20276 3.00247 3.97999C3.00217 3.43969 3.44772 3.01061 3.98802 3.01059C4.15498 3.01059 4.30938 3.01055 4.41779 3.01044H6.52765C7.23365 3.00351 7.83541 3.52001 7.93422 4.21774C8.02327 4.89162 8.18842 5.55329 8.42652 6.19012C8.61973 6.70313 8.49615 7.28146 8.11004 7.67116L7.21687 8.56259C8.21803 10.3199 9.67587 11.7749 11.4366 12.7741L12.3297 11.8826C12.7202 11.4973 13.2997 11.3739 13.8137 11.5668C14.4517 11.8044 15.1147 11.9692 15.7899 12.0581C16.4971 12.1577 17.0173 12.7704 16.9996 13.483Z" fill="#111111"/>
</g>
<defs>
<clipPath id="clip0_2789_60131">
<rect width="20" height="20" fill="white"/>
</clipPath>
</defs>
</svg>
